<svg xmlns="http://www.w3.org/2000/svg" fill="none" viewBox="-60 -20 128 128">
<g id="fontsvg1737398987453" stroke-linecap="round" fill-rule="evenodd" stroke="#991b1b" stroke-width="1mm" fill="#991b1b"><path d="M 1.95 85.351 L 0 86.401 L 2.4 90.601 L 4.8 89.251 C 12.306 84.983 17.501 78.549 17.694 69.382 A 25.216 25.216 0 0 0 17.7 68.851 A 15.912 15.912 0 0 0 17.245 64.927 C 16.141 60.592 13.151 58.351 9.6 58.351 A 7.326 7.326 0 0 0 2.458 63.512 A 8.486 8.486 0 0 0 2.1 66.001 A 7.944 7.944 0 0 0 3.482 70.613 C 4.508 72.071 6.066 73.105 8.019 73.487 A 8.999 8.999 0 0 0 9.75 73.651 C 9.75 77.701 7.2 82.351 1.95 85.351 Z M 9.6 15.301 A 7.676 7.676 0 0 0 14.649 13.485 C 16.171 12.177 17.14 10.258 17.241 8.039 A 8.505 8.505 0 0 0 17.25 7.651 A 7.676 7.676 0 0 0 15.434 2.602 C 14.127 1.079 12.207 0.111 9.988 0.009 A 8.505 8.505 0 0 0 9.6 0.001 A 7.676 7.676 0 0 0 4.551 1.816 C 3.029 3.124 2.06 5.043 1.959 7.262 A 8.505 8.505 0 0 0 1.95 7.651 A 7.676 7.676 0 0 0 3.766 12.699 C 5.073 14.222 6.993 15.19 9.212 15.292 A 8.505 8.505 0 0 0 9.6 15.301 Z" vector-effect="non-scaling-stroke"/></g>
</svg>
